<?xml version="1.0" encoding="utf-8" ?><svg xmlns="http://www.w3.org/2000/svg" xmlns:xlink="http://www.w3.org/1999/xlink" width="1080" height="1080" viewBox="0 0 1080 1080"><path fill="#EC7671" d="M229.559 372.401C261.246 371.879 292.994 372.592 324.686 372.598L496.235 372.395C529.309 372.45 554.75 380.787 578.467 404.763C601.955 428.508 611.41 460.439 611.301 493.221C611.198 524.084 601.682 554.851 579.282 576.872C562.445 593.423 540.381 603.611 516.864 605.695C507.464 606.522 497.82 606.078 488.388 606.048C476.52 606.011 464.644 606.265 452.779 606.129C448.538 602.508 445.06 597.46 441.65 593.065C432.783 581.638 424.643 569.196 415.044 558.42L415.036 633.076L415.053 677.961L334.773 678.098C335.189 627.153 335.423 576.091 334.77 525.15C347.504 524.866 360.303 525.183 373.045 525.188L452.209 525.193C467.705 525.192 483.565 525.91 499.011 524.95C508.698 524.348 516.898 522.54 523.553 514.822C530.382 506.904 532.835 496.637 532.018 486.37C531.271 476.966 526.771 467.312 519.399 461.286C514.204 457.039 508.55 454.998 501.914 454.296C485.781 452.588 468.854 453.694 452.602 453.679L359.597 453.586L273.277 453.609C259.841 453.616 243.253 452.621 230.142 453.988C230.628 435.959 230.322 417.759 229.983 399.725C229.813 390.657 228.921 381.455 229.559 372.401Z"/><path fill="#EC7671" d="M574.585 372.504L577.26 372.462C615.45 371.931 653.695 372.519 691.892 372.517L733.902 372.649C749.763 372.666 765.956 371.975 781.533 375.477C793.276 378.118 804.036 384.015 812.58 392.493C841.761 421.188 848.121 471.778 848.546 510.911C849.022 554.81 838.845 608.132 807.012 640.461C778.794 669.119 745.115 677.354 706.245 677.719C692.836 677.905 679.445 678.091 666.038 677.699C659.122 669.239 651.258 650.239 645.887 639.673C638.606 625.35 630.466 611.286 623.933 596.61C644.972 595.649 666.328 596.463 687.402 596.461C699.786 596.459 713.284 597.239 725.376 594.272C733.196 592.354 740.039 588.807 745.872 583.21C761.733 567.991 767.039 542.296 767.414 521.192C767.736 503.034 767.645 477.875 753.935 464.109C749.344 459.499 743.665 457.184 737.429 455.808C722.395 452.492 706.126 453.593 690.809 453.611C669.469 453.568 648.129 453.739 626.793 454.122C619.796 427.86 611.013 407.383 591.511 387.744C586.3 382.496 579.727 378.358 574.875 372.843C574.776 372.731 574.682 372.617 574.585 372.504Z"/><path fill="#EC7671" d="M597.077 589.928C601.048 591.731 635.917 666.416 641.501 677.622C626.736 677.893 611.909 677.551 597.137 677.572L514.424 677.963C512.226 677.948 510.023 677.817 507.827 677.728C499.952 670.259 493.277 660.309 486.584 651.732C480.415 643.826 473.817 636.168 467.823 628.149L471.79 628.329C521.835 630.446 558.33 625.523 597.077 589.928Z"/></svg>